<svg width="15" height="15" xmlns="http://www.w3.org/2000/svg"><path d="M.579 5.12h2.993v9.628H.58V5.12zM3.67 2.442c0 .826-.61 1.496-1.614 1.496C1.11 3.938.5 3.268.5 2.442c0-.847.63-1.498 1.594-1.498.966 0 1.557.65 1.576 1.498zM5.363 8.19c0-1.2-.04-2.205-.078-3.071h2.598l.139 1.338h.059c.394-.63 1.358-1.555 2.973-1.555 1.969 0 3.446 1.32 3.446 4.154v5.691h-2.993V9.412c0-1.24-.433-2.087-1.517-2.087-.826 0-1.319.571-1.535 1.122-.08.197-.099.473-.099.749v5.552H5.363V8.191z" fill="#666D89" fill-rule="nonzero"/></svg>