<svg width="15" height="12" xmlns="http://www.w3.org/2000/svg"><path d="M14.5 1.717a5.722 5.722 0 01-1.65.453A2.882 2.882 0 0014.113.58c-.555.33-1.17.569-1.823.697a2.873 2.873 0 00-4.895 2.62 8.152 8.152 0 01-5.92-3 2.87 2.87 0 00.889 3.835 2.853 2.853 0 01-1.302-.36v.036c0 1.392.99 2.552 2.304 2.816a2.886 2.886 0 01-1.297.05 2.875 2.875 0 002.684 1.994A5.764 5.764 0 01.5 10.458a8.122 8.122 0 004.403 1.29c5.283 0 8.172-4.377 8.172-8.172 0-.124-.002-.248-.008-.372A5.816 5.816 0 0014.5 1.717z" fill="#666D89" fill-rule="nonzero"/></svg>