<svg width="15" height="14" xmlns="http://www.w3.org/2000/svg"><path d="M14.877 5.376V6.86h-2.344v2.344H11.05V6.86H8.706V5.376h2.343V3.032h1.484v2.344h2.344zM5.252 0h3.593v.078c0 .402-.721.479-1.214.546-.166.023-.5.058-.596.107.91.484 1.057 1.248 1.057 2.387 0 1.296-.507 1.98-1.045 2.462-.332.297-.596.533-.596.845 0 .307.36.623.777.987.682.6 1.617 1.42 1.617 2.8 0 1.427-.614 2.448-1.823 3.034-.932.453-1.936.502-2.324.502l-.125-.001h-.075c-.604 0-3.621-.14-3.621-2.886 0-2.7 3.285-2.91 4.292-2.91h.025c-.58-.776-.46-1.56-.46-1.56a3.595 3.595 0 01-.218.007c-.38 0-1.11-.06-1.738-.466C2.01 5.438 1.62 4.595 1.62 3.43 1.62.134 5.216 0 5.252 0zM5.13 8.655a4.2 4.2 0 00-.242.007c-.688.051-1.32.308-1.78.725-.454.412-.686.929-.653 1.456.069 1.097 1.25 1.742 2.683 1.638 1.41-.103 2.35-.914 2.281-2.013-.064-1.034-.963-1.813-2.29-1.813zM4.566.975c-.101 0-.203.013-.3.04-.407.115-.73.454-.909.957-.183.512-.195 1.043-.037 1.652.286 1.083 1.056 1.868 1.832 1.868.103 0 .203-.014.301-.041.848-.24 1.38-1.535 1.027-2.775C6.107 1.363 5.504.974 4.566.974z" fill="#666D89" fill-rule="evenodd"/></svg>